<svg width="132" height="32" viewBox="0 0 132 32" fill="none" xmlns="http://www.w3.org/2000/svg">
<path d="M30.167 5.24211L29.0944 22.0844L18.8395 0L30.167 5.24211ZM23.0643 27.02L15.3155 31.4414L7.56684 27.0203L9.14278 23.2008H21.4881L23.0643 27.02ZM15.3155 8.38323L19.3759 18.2546H11.255L15.3155 8.38323ZM1.5255 22.0844L0.463867 5.24211L11.7914 0L1.5255 22.0844ZM122.415 25.577V9.58387H126.07V12.2493H126.236C126.528 11.3262 127.029 10.613 127.741 10.1097C128.452 9.6064 129.266 9.35475 130.182 9.35475C130.391 9.35475 130.625 9.36346 130.885 9.38087C131.145 9.39827 131.362 9.4243 131.536 9.45894V12.9262C131.376 12.8707 131.125 12.8204 130.781 12.7752C130.451 12.7311 130.119 12.7084 129.787 12.7073C129.1 12.7073 128.483 12.855 127.938 13.1502C127.393 13.4451 126.965 13.8528 126.652 14.3734C126.34 14.8941 126.184 15.4946 126.184 16.1748V25.577H122.415ZM114.756 9.37549C115.526 9.37549 116.294 9.46577 117.057 9.64634C117.821 9.8269 118.518 10.1236 119.15 10.5364C119.781 10.9495 120.29 11.5101 120.676 12.2184C121.061 12.9263 121.253 13.8112 121.253 14.8731V25.577H117.63V23.38H117.505C117.276 23.8244 116.955 24.2392 116.542 24.6244C116.129 25.0098 115.612 25.3187 114.991 25.5511C114.369 25.7836 113.642 25.8998 112.809 25.8998C111.796 25.8998 110.884 25.7176 110.076 25.3532C109.267 24.9888 108.628 24.4491 108.16 23.734C107.692 23.0193 107.457 22.1378 107.457 21.0895C107.457 20.1872 107.624 19.441 107.957 18.8508C108.282 18.2691 108.752 17.7812 109.321 17.4346C109.897 17.0807 110.548 16.8117 111.273 16.6277C112.014 16.4408 112.768 16.3069 113.528 16.2268L113.997 16.1774L114.54 16.1175C115.001 16.0653 115.404 16.016 115.747 15.9695L115.808 15.9613C116.391 15.8816 116.816 15.7567 117.083 15.5866C117.35 15.4166 117.484 15.151 117.484 14.7899V14.7274C117.484 13.943 117.252 13.3357 116.787 12.9055C116.321 12.4749 115.652 12.2596 114.777 12.2596C113.854 12.2596 113.123 12.461 112.585 12.8637C112.047 13.2665 111.685 13.742 111.497 14.2902L107.978 13.7905C108.255 12.8187 108.713 12.0048 109.352 11.3487C109.991 10.6927 110.772 10.1998 111.695 9.87008C112.618 9.54052 113.638 9.37566 114.756 9.37549M117.495 17.9553C117.377 18.0526 117.177 18.1428 116.896 18.2259C116.586 18.3157 116.271 18.3887 115.954 18.4445C115.676 18.4947 115.401 18.5403 115.127 18.5812L114.845 18.6222L114.038 18.7361C113.476 18.8126 112.972 18.9376 112.528 19.1112C112.083 19.2847 111.733 19.526 111.476 19.8349C111.22 20.1438 111.091 20.5412 111.091 21.0271C111.091 21.721 111.344 22.245 111.851 22.5992C112.358 22.9531 113.004 23.1301 113.788 23.1301C114.544 23.1301 115.2 22.9792 115.756 22.6772C116.311 22.3752 116.74 21.9744 117.042 21.4748C117.344 20.9749 117.495 20.43 117.495 19.84L117.495 17.9553ZM103.056 25.577H106.826V4.25267H103.056V25.577ZM98.0529 18.8508V9.58387H101.822V25.577H98.1673V22.7346H98.0006C97.6397 23.6301 97.0479 24.3624 96.2253 24.9316C95.4027 25.5008 94.391 25.7853 93.1901 25.7853C92.1421 25.7853 91.2171 25.551 90.4151 25.0824C89.6131 24.6137 88.9868 23.93 88.5361 23.0313C88.0847 22.1324 87.859 21.0444 87.8592 19.7673V9.58362H91.6283V19.1836C91.6283 20.1974 91.906 21.0027 92.4613 21.5995C93.0167 22.1963 93.7455 22.4947 94.6478 22.4947C95.203 22.4947 95.741 22.3594 96.2619 22.0887C96.7824 21.818 97.2111 21.4137 97.5478 20.8758C97.8741 20.3539 98.0422 19.7033 98.0521 18.924L98.0529 18.8508ZM78.1074 9.37549C79.0444 9.37549 79.8166 9.53335 80.4242 9.84909C81.0314 10.1652 81.5156 10.5435 81.8767 10.9842C82.2375 11.4252 82.5117 11.8399 82.6993 12.2284H82.9074V9.58387H86.6245V25.8373C86.6245 27.2049 86.2983 28.3364 85.6458 29.2319C84.9934 30.1274 84.1014 30.7972 82.9699 31.2415C81.8383 31.6857 80.5542 31.9078 79.1176 31.9078C77.7637 31.9078 76.6009 31.7257 75.6293 31.3613C74.6574 30.9966 73.8764 30.5089 73.2864 29.8982C72.6966 29.2873 72.2871 28.6104 72.0579 27.8676L75.4524 27.0451C75.6048 27.3574 75.8269 27.6681 76.1188 27.9772C76.4103 28.2861 76.8042 28.543 77.3005 28.7478C77.797 28.9526 78.4234 29.055 79.1798 29.055C80.2488 29.055 81.1339 28.7964 81.835 28.2793C82.5361 27.762 82.8867 26.9134 82.8867 25.7334V22.7034H82.6993C82.5047 23.092 82.2218 23.4911 81.8506 23.9007C81.4791 24.3103 80.9897 24.6539 80.3825 24.9316C79.7749 25.2093 79.013 25.3481 78.0969 25.3481C76.8681 25.3481 75.7558 25.0582 74.7599 24.4785C73.7636 23.8991 72.9722 23.0315 72.3858 21.8757C71.7992 20.72 71.5059 19.2708 71.5059 17.5283C71.5059 15.7722 71.7992 14.2885 72.3858 13.0772C72.9724 11.866 73.7655 10.9462 74.7651 10.3178C75.7647 9.68943 76.8788 9.37532 78.1074 9.37549ZM79.1485 12.468C78.3087 12.468 77.6076 12.6867 77.0452 13.1241C76.4831 13.5613 76.0597 14.16 75.7752 14.9202C75.4904 15.6802 75.3481 16.5426 75.3482 17.5076C75.3482 18.4864 75.4923 19.3419 75.7803 20.0742C76.0684 20.8066 76.4953 21.3757 77.0609 21.7818C77.6264 22.1878 78.3223 22.3909 79.1485 22.391C79.9468 22.391 80.627 22.1967 81.1894 21.8079C81.7517 21.4191 82.1786 20.8603 82.4701 20.1316C82.7616 19.4025 82.9074 18.5278 82.9074 17.5076C82.9074 16.5012 82.7634 15.6197 82.4755 14.8631C82.1873 14.1064 81.7638 13.518 81.2052 13.098C80.6465 12.6781 79.9609 12.468 79.1485 12.468ZM60.5455 16.2063V25.577H56.7764V9.58387H60.3794V12.3013H60.5665C60.9343 11.406 61.5226 10.6946 62.3314 10.167C63.14 9.63951 64.1414 9.37566 65.3355 9.37549C66.4391 9.37549 67.4022 9.61152 68.225 10.0836C69.0473 10.5556 69.6858 11.2393 70.1407 12.1347C70.5841 13.0085 70.808 14.0639 70.8124 15.3009V25.577H67.0431V15.977C67.0431 14.9081 66.7671 14.0716 66.2152 13.4676C65.6632 12.8637 64.9015 12.5617 63.9299 12.5617C63.2706 12.5617 62.6857 12.7057 62.1752 12.9938C61.6649 13.282 61.2658 13.6968 60.9779 14.238C60.6994 14.7616 60.5554 15.392 60.546 16.1293L60.5455 16.2063ZM48.9605 4.25267L56.4779 25.577H52.3548L50.5882 20.3187H42.5707L40.8074 25.577H36.684L44.1912 4.25267H48.9605ZM46.6596 8.62592H46.4927L43.6114 17.216H49.5455L46.6596 8.62592Z" fill="url(#paint0_linear_36_47)"/>
<path d="M23.0643 27.0203L15.3155 31.4414L7.56684 27.0203L9.14278 23.2008H21.4881L23.0643 27.0203ZM15.3155 8.38298L19.3759 18.2543H11.255L15.3155 8.38298ZM1.5255 22.0844L0.463867 5.24211L11.7914 0L1.5255 22.0844Z" fill="url(#paint1_linear_36_47)"/>
<defs>
<linearGradient id="paint0_linear_36_47" x1="0.463861" y1="1533.65" x2="12996.1" y2="2775.36" gradientUnits="userSpaceOnUse">
<stop stop-color="#E847A3"/>
<stop offset="0.25687" stop-color="#DA5AF7"/>
<stop offset="0.33759" stop-color="#DD57F6"/>
<stop offset="0.56442" stop-color="#B848F4"/>
<stop offset="1" stop-color="#8842F6"/>
</linearGradient>
<linearGradient id="paint1_linear_36_47" x1="827.979" y1="1309.72" x2="683.067" y2="3138.61" gradientUnits="userSpaceOnUse">
<stop stop-color="#E03440" stop-opacity="0.2"/>
<stop offset="0.28023" stop-color="#E03440" stop-opacity="0.62"/>
<stop offset="1" stop-color="#E03440"/>
</linearGradient>
</defs>
</svg>
