<svg width="128" height="54" viewBox="0 0 128 54" fill="none" xmlns="http://www.w3.org/2000/svg">
<path d="M127.93 36.9287C127.619 33.8937 125.405 32.5404 123.327 32.5404C122.375 32.5404 121.617 32.8111 121.326 32.9271L120.918 33.1012L120.569 33.3525C120.083 33.7196 119.228 34.2222 118.471 34.4929C118.432 33.8743 118.451 33.0816 118.548 32.4244L118.568 32.3085C119.131 26.9726 118.005 23.8603 115.227 23.0676C114.761 22.9322 114.275 22.8742 113.79 22.8742C112.1 22.8742 110.604 23.6861 109.633 24.3821C108.817 23.3577 107.458 22.7777 105.749 22.7777C103.204 22.7777 101.165 23.9571 100.427 25.8514C100.349 26.0447 100.252 26.3346 100.135 26.7213C98.6397 23.4348 95.5902 22.1783 92.7545 22.1783C90.074 22.1783 87.4712 23.2223 86.5 23.9569C86.4612 23.9954 86.403 24.0148 86.3447 24.0728C83.8002 25.8708 81.819 28.1327 80.4205 30.8583C79.7407 28.4999 78.2452 26.2961 75.5647 24.6334L75.526 24.5949C75.4482 24.5563 75.39 24.5177 75.3122 24.4789C77.9345 19.839 80.2652 13.6915 78.8667 7.83392C77.3905 1.58962 73.7 0.661499 71.6217 0.661499C70.7672 0.661665 69.8933 0.816352 69 1.12556L68.9417 1.14497L68.8832 1.16413C64.9792 2.69142 63.27 4.99207 62.9007 5.53352C62.5125 6.11328 58.2392 12.5703 57.21 22.0237C57.0935 23.0676 56.9767 24.1502 56.8602 25.2328C56.2582 24.3821 55.2677 23.609 53.6942 23.1255C53.2087 22.971 52.7037 22.913 52.1987 22.913C50.0427 22.913 48.2945 24.2276 47.3622 25.0975L47.3427 25.0781C46.527 23.8795 45.2257 23.1644 43.7882 23.1064H43.4387C41.1467 23.1064 39.321 24.1116 37.9807 25.2523C37.1262 23.7635 35.5527 22.8357 33.7077 22.8357C33.5522 22.8357 33.4162 22.8357 33.2802 22.8551H32.9695C30.425 22.8551 28.4245 24.0537 27.6087 26.0448C27.5505 26.1995 27.4727 26.3926 27.395 26.6439C25.3945 24.1696 22.85 23.0096 19.4315 23.0096H19.1015C16.9647 23.0482 11.6427 23.9377 8.37946 31.2452C7.87446 32.3664 7.48596 33.5071 7.19471 34.6283C6.60995 34.3603 5.97374 34.2217 5.32996 34.2222C3.62071 34.2222 2.33896 35.1889 1.71746 36.0976C1.21246 36.8321 -0.400043 39.4418 0.396457 41.9938C0.823957 43.3663 1.81446 44.4104 3.21296 44.9516C4.43671 45.4351 5.99046 45.8989 7.15596 46.2276C7.87446 47.8514 9.15646 49.7266 11.429 51.4472C13.0412 52.6652 15.1 53.2838 17.528 53.2838C21.607 53.2838 25.5497 51.5246 25.9772 51.3312L26.1325 51.2541L26.1712 51.2153C26.9482 52.0272 27.9777 52.6072 29.279 52.8585C29.6675 52.9357 30.1725 52.9939 30.7552 52.9939C32.9695 52.9939 34.504 51.8724 35.922 49.7654C37.0872 51.5826 39.2045 52.607 41.71 52.607H41.7295C41.8655 52.607 42.0015 52.704 42.157 52.704C43.4775 52.704 45.1285 52.24 46.5077 50.0361C47.6535 52.0852 49.7512 53.2644 52.2377 53.2644C54.4517 53.2644 56.3747 52.3559 56.7242 52.182L56.802 52.1432C57.54 51.7565 58.1617 51.4086 58.6472 51.1379C60.2982 52.0078 62.8037 52.9745 65.8727 52.9745C66.3972 52.9745 66.9215 52.9551 67.446 52.8974L67.582 52.8779L67.718 52.8585C74.2247 51.5826 78.459 50.0361 80.984 48.8567C82.7515 50.8286 85.568 52.7232 89.5887 53.0131C90.0355 53.0519 90.5015 53.071 90.9482 53.071C94.2502 53.071 96.8917 52.1432 98.8342 51.1185C99.4557 51.7759 100.233 52.3751 101.243 52.7812C101.845 53.0325 102.466 53.1484 103.107 53.1484C107.147 53.1484 109.031 48.354 109.556 46.7302L110.527 44.1399C111.382 45.0481 112.469 45.7829 113.848 46.1696C114.606 46.3823 115.422 46.498 116.257 46.498C120.705 46.498 124.978 43.3663 125.658 42.8445C126.881 41.8393 128.222 39.7705 127.93 36.9287" fill="white"/>
<path d="M87.1819 38.2387C87.1819 38.2387 86.6186 36.267 88.7164 32.4585C90.7946 28.6694 92.4264 30.7379 92.4264 30.7379C92.4264 30.7379 94.2131 32.6712 92.1739 35.5517C90.1344 38.4515 87.1819 38.2387 87.1819 38.2387ZM71.1576 40.984C68.7686 47.2089 62.9611 44.6766 62.9611 44.6766C62.9611 44.6766 62.3006 42.4533 64.1846 36.2091C66.0689 29.9839 70.4971 32.4199 70.4971 32.4199C70.4971 32.4199 73.5466 34.7589 71.1576 40.984ZM66.8264 14.9045C66.8264 14.9045 70.4389 5.52852 71.3131 10.091C72.1874 14.6535 63.7381 28.2245 63.7381 28.2245C63.8156 25.1701 66.8264 14.9045 66.8264 14.9045ZM15.1601 38.2385C15.3154 32.2069 19.2776 29.5778 20.6569 30.8924C22.0361 32.2069 21.5309 35.0488 18.9281 36.8274C16.3449 38.606 15.1601 38.2385 15.1601 38.2385ZM124.63 37.2526C124.436 35.2227 122.591 35.9767 122.591 35.9767C122.591 35.9767 119.638 38.2579 117.036 38.0066C114.452 37.7359 115.268 31.975 115.268 31.975C115.268 31.975 115.831 26.678 114.297 26.2334C112.763 25.7887 110.878 27.6059 110.878 27.6059C110.878 27.6059 108.528 30.1962 107.421 33.4829L107.11 33.5795C107.11 33.5795 107.46 27.7992 107.052 26.4847C106.741 25.8273 103.944 25.8853 103.498 27.0453C103.031 28.2051 100.798 36.3054 100.642 39.7081C100.642 39.7081 96.2721 43.4004 92.4456 44.019C88.6194 44.6181 87.7064 42.2404 87.7064 42.2404C87.7064 42.2404 98.0979 39.3599 97.7289 31.1049C97.3791 22.8501 89.3574 25.9044 88.4444 26.5812C87.5704 27.2386 82.8894 30.0416 81.5104 37.8326C81.4714 38.1034 81.3744 39.2634 81.3744 39.2634C81.3744 39.2634 77.3536 41.9505 75.1201 42.6656C75.1201 42.6656 81.3744 32.1875 73.7409 27.4125C70.2836 25.3441 67.5256 29.6938 67.5256 29.6938C67.5256 29.6938 77.8586 18.249 75.5669 8.56346C74.4791 3.96266 72.1676 3.46003 70.0311 4.21398C66.8069 5.48996 65.5831 7.3457 65.5831 7.3457C65.5831 7.3457 61.4071 13.3773 60.4359 22.3474C59.4646 31.3176 58.0469 42.1436 58.0469 42.1436C58.0469 42.1436 56.0656 44.0769 54.2399 44.1735C52.4141 44.2703 53.2299 38.7605 53.2299 38.7605C53.2299 38.7605 54.6479 30.3509 54.5506 28.9398C54.4534 27.5288 54.3564 26.7552 52.6666 26.2525C50.9961 25.7499 49.1509 27.8766 49.1509 27.8766C49.1509 27.8766 44.3146 35.1647 43.9066 36.2859L43.6541 36.75L43.4016 36.4407C43.4016 36.4407 46.8201 26.5038 43.5571 26.3687C40.2939 26.214 38.1574 29.9063 38.1574 29.9063C38.1574 29.9063 34.4474 36.0926 34.2921 36.7888L34.0396 36.4793C34.0396 36.4793 35.5741 29.2877 35.2634 27.5091C34.9526 25.7305 33.2821 26.098 33.2821 26.098C33.2821 26.098 31.1456 25.8467 30.5821 27.2192C30.0189 28.5917 27.9796 37.6587 27.7271 40.5389C27.7271 40.5389 22.3856 44.3477 18.8699 44.3862C15.3544 44.4442 15.7234 42.163 15.7234 42.163C15.7234 42.163 28.6009 37.7747 25.0854 29.1138C23.5121 26.8905 21.6669 26.1945 19.0836 26.2334C16.4811 26.2913 13.4314 27.8572 11.3336 32.5162C10.3431 34.7395 9.93514 36.8465 9.93514 38.4512C9.93514 38.4512 7.52664 38.9153 6.30314 37.8906C5.07939 36.8854 4.38014 37.8906 4.38014 37.8906C4.38014 37.8906 2.24364 40.9258 4.32189 41.7375C6.40014 42.5496 9.62439 43.3036 9.62439 43.3036C9.91589 44.6181 10.7899 46.764 13.3344 48.678C17.1414 51.5584 24.4834 48.2333 24.4834 48.2333L27.4939 46.4547C27.4939 46.4547 27.5911 49.1421 29.7859 49.5479C31.9809 49.954 32.8936 49.5093 36.7006 40.3072C38.9344 35.59 39.0896 35.8413 39.0896 35.8413L39.3421 35.7833C39.3421 35.7833 37.6136 44.7921 38.2739 47.2281C38.9341 49.6641 41.8284 49.4128 41.8284 49.4128C41.8284 49.4128 43.4016 49.9731 44.6836 45.5074C45.9656 41.0418 48.3936 36.3827 48.3936 36.3827H48.7044C48.7044 36.3827 47.6359 45.3529 49.2676 48.2913C50.8991 51.23 55.1139 49.1612 55.1139 49.1612C55.1139 49.1612 58.0664 47.6148 58.5324 47.1507C58.5324 47.1507 62.0286 50.0893 66.9816 49.5479C78.0336 47.3826 81.9571 44.4442 81.9571 44.4442C81.9571 44.4442 83.8606 49.2192 89.7264 49.6638C96.4469 50.1665 100.118 45.9521 100.118 45.9521C100.118 45.9521 100.06 48.678 102.41 49.6447C104.76 50.6114 106.333 45.5074 106.333 45.5074L110.257 35.0488H110.607C110.607 35.0488 110.801 41.7377 114.685 42.8589C118.59 43.961 123.62 40.0945 123.62 40.0945C123.62 40.0945 124.844 39.2826 124.63 37.2526" fill="#E24B31"/>
</svg>
