<svg width="128" height="30" viewBox="0 0 128 30" fill="none" xmlns="http://www.w3.org/2000/svg">
<path fill-rule="evenodd" clip-rule="evenodd" d="M122.43 2.6615L127.785 2.691C127.785 2.691 117.829 16.182 117.016 17.2815C116.752 17.6375 116.351 18.0215 116.147 18.4975C115.633 19.694 115.105 22.3187 115.105 22.3187L110.205 22.3433C110.205 22.3433 110.968 19.6072 110.936 18.15C110.909 16.877 110.259 15.6055 109.894 14.3287C109.526 13.0362 109.025 10.5072 109.025 10.5072H114.063L114.758 13.2865L122.43 2.6615Z" fill="#21609B"/>
<path fill-rule="evenodd" clip-rule="evenodd" d="M112.289 5.50676C113.277 6.10251 113.884 9.38901 113.884 9.38901C113.884 9.38901 108.713 9.46526 105.899 9.46526H103.467L100.514 22.3188H95.9982C95.9982 22.3188 98.8087 8.35026 99.4722 5.81776C99.6872 4.99776 100.945 5.13851 103.069 5.13851H106.462C108.652 5.13851 111.212 4.85876 112.289 5.50676ZM91.265 11.7668C91.265 11.7668 91.4057 10.9418 90.7875 9.98626C90.2592 9.17176 89.7715 8.98226 88.3817 8.93876C84.458 8.81551 84.5342 11.7233 84.5342 11.7233L91.265 11.7668ZM95.5205 8.43676C96.0955 10.511 94.9995 15.3848 94.9995 15.3848C94.9995 15.3848 89.276 15.2893 86.141 15.3848C85.1662 15.4145 83.9995 15.2788 83.7092 15.7323C83.301 16.3678 83.8585 17.346 84.331 17.7593C84.8747 18.235 85.934 18.2893 86.3147 18.3375C88.8592 18.6608 94.1847 18.421 94.1847 18.421L93.2622 22.506C93.2622 22.506 85.7365 22.8835 81.9722 21.985C81.229 21.808 80.5322 21.4503 80.0615 20.943C79.933 20.8043 79.8215 20.615 79.7 20.4515C79.603 20.321 79.32 19.8923 79.193 19.5533C78.3332 17.2623 79.2937 12.8733 80.2352 10.5213C80.3445 10.2488 80.4817 9.90301 80.6262 9.60926C80.8067 9.24301 80.9595 8.82951 81.1037 8.61051C81.2007 8.45951 81.321 8.36226 81.4217 8.21976C81.538 8.05126 81.6732 7.88801 81.7985 7.74226C82.146 7.33926 82.5402 7.05426 83.0145 6.70026C84.5827 5.52576 87.421 4.61401 90.8307 4.96301C92.1145 5.09501 94.0532 5.55351 94.9995 6.87376C95.253 7.22626 95.3782 7.92601 95.5205 8.43676ZM74.8072 5.12251L79.1862 5.09676C79.1862 5.09676 76.7457 16.6735 75.502 22.3188H70.4645C66.944 22.3188 63.8087 22.7548 62.4747 20.2343C61.1807 17.787 62.4157 13.7625 62.9957 11.0283C63.4057 9.09326 64.2692 5.13826 64.2692 5.13826L68.8062 5.09676C68.8062 5.09676 67.5242 11.2543 66.9907 14.3288C66.7997 15.43 66.4057 16.467 66.8172 17.2813C67.208 18.0563 67.7552 18.1118 69.4225 18.15C69.9507 18.1625 71.6807 18.15 71.6807 18.15L74.8072 5.12251ZM54.311 13.46C54.7695 11.831 55.4382 10.0645 55.3532 8.59651C55.2612 7.02651 53.9447 5.59701 53.0952 5.29651C50.5367 4.39326 48.1415 5.65601 47.1895 6.68601C45.958 8.02001 45.541 9.57826 45.105 11.7235C44.7805 13.316 44.5145 14.9973 45.105 16.2393C46.1505 18.435 49.411 17.9555 52.9215 17.9765C53.4425 16.58 53.8732 15.0115 54.311 13.46ZM60.3905 7.03351C60.8905 10.6705 58.9715 14.685 57.6495 18.176C58.9975 18.2978 60.1787 18.1573 60.2637 18.2578C60.3522 18.388 59.3602 22.4248 59.0145 22.4353C57.9447 22.463 54.3997 22.4925 52.9215 22.4925C48.0977 22.4925 43.5852 22.8068 41.284 20.4083C40.3495 19.4338 39.7032 17.7625 39.5467 16.5868C39.2862 14.624 39.6127 12.463 40.068 10.6813C40.4797 9.07251 41.0075 7.55451 41.805 6.16476C43.832 2.62676 47.358 0.000513524 53.2687 0.606764C54.4152 0.724764 56.0617 1.22676 57.0902 1.82251C57.1612 1.86426 57.41 2.06226 57.467 2.09701C58.8567 2.98126 60.123 5.09151 60.3905 7.03351ZM39.0482 5.14351C38.7565 6.47226 38.4647 7.97851 38.1572 9.29151H33.2937C33.6705 7.83601 33.959 6.38901 34.336 5.12276C35.8922 5.12276 37.3392 5.14351 39.0485 5.14351M33.12 10.5075H37.81C37.1967 13.9015 35.9825 19.3763 35.0307 23.1873C34.435 25.5723 34.0372 27.3125 32.4252 28.5718C32.281 28.6848 32.1977 28.631 32.0777 28.7455C31.7807 29.0288 30.4067 29.3573 29.6462 29.4403C28.4095 29.5743 27.0112 29.4578 25.4912 29.4265C25.889 27.9728 26.339 26.227 26.6935 24.924C30.3985 25.3725 30.4922 21.8705 31.2095 18.4975C31.6245 16.5485 32.8822 11.289 33.12 10.5075Z" fill="#21609B"/>
<path fill-rule="evenodd" clip-rule="evenodd" d="M22.1769 19.3663L22.0764 19.6265C20.3639 22.9615 17.3292 25.0078 13.0007 25.098C10.9772 25.1395 9.04918 24.6205 7.78968 24.0558C5.07168 22.835 2.78543 20.57 1.53693 18.1503C-0.254067 14.6815 -0.577067 9.85601 3.14693 6.25201C3.20443 6.25201 2.69518 7.03351 2.75268 7.03351L2.65018 7.36701C-0.0333169 15.7688 8.23443 22.9685 16.2714 22.145C18.2029 21.9473 20.6659 20.8895 22.1769 19.3663Z" fill="#21609B"/>
<path fill-rule="evenodd" clip-rule="evenodd" d="M17.3134 15.892C19.3354 15.906 21.4474 14.961 22.6981 13.634C21.6039 16.4115 18.4356 18.197 14.1871 17.629C10.6296 17.153 7.24085 13.5733 6.89185 9.98654C6.6366 7.37579 7.54635 5.81779 9.0456 3.92804C8.5246 4.91629 8.32985 5.67879 8.28135 6.16504C7.71185 11.812 12.7924 15.8625 17.3134 15.892Z" fill="#21609B"/>
<path fill-rule="evenodd" clip-rule="evenodd" d="M22.495 8.87828C22.1807 9.59928 20.371 10.9608 19.5717 11.1308C16.407 11.805 14.3802 10.3043 13.3185 8.59678C13.1607 8.34153 12.869 7.64503 12.8167 7.46778C12.405 6.06778 12.5942 3.95028 13.8225 2.85428C13.4525 3.89678 13.3985 5.10703 13.5932 5.89403C13.7112 6.37003 14.0707 7.20053 14.4305 7.72303C15.085 8.67503 15.5 8.90628 16.341 9.41153C16.7197 9.63903 17.126 9.82153 17.3015 9.87178C18.0987 10.1063 19.7817 10.7248 22.495 8.87828Z" fill="#21609B"/>
</svg>
