<svg width="128" height="30" viewBox="0 0 128 30" fill="none" xmlns="http://www.w3.org/2000/svg">
<path d="M25.8512 29.8168H42.9812C43.5255 29.8168 44.0597 29.6792 44.5312 29.4176C44.9994 29.1588 45.3905 28.7823 45.6652 28.326C45.9365 27.8752 46.0798 27.3601 46.0802 26.8351C46.0802 26.3117 45.9365 25.7975 45.664 25.3443L34.16 6.17653C33.8852 5.72025 33.4941 5.34381 33.026 5.08512C32.5523 4.82299 32.0189 4.68556 31.4765 4.68595C30.9341 4.68556 30.4006 4.82299 29.927 5.08512C29.4588 5.34378 29.0676 5.72022 28.7927 6.17653L25.8512 11.0807L20.1002 1.49058C19.8252 1.03429 19.4338 0.657936 18.9655 0.399422C18.4918 0.137161 17.9582 -0.000352763 17.4157 1.00387e-06C16.8733 -0.000428546 16.3397 0.136999 15.866 0.399175C15.3977 0.657791 15.0064 1.03423 14.7315 1.49058L0.416 25.3443C0.144289 25.7949 0.000546115 26.3101 0 26.8351C0 27.3583 0.14275 27.8727 0.41475 28.326C0.689576 28.7823 1.08079 29.1587 1.549 29.4174C2.02276 29.6797 2.55641 29.8172 3.099 29.8168H13.8515C18.112 29.8168 21.254 28.0168 23.4157 24.5045L28.6642 15.7604L31.4755 11.0809L39.913 25.1373H28.6642L25.8512 29.8168ZM13.6762 25.1326L6.17225 25.1308L17.4207 6.39L23.0332 15.7604L19.2755 22.0235C17.8397 24.3022 16.2087 25.1326 13.6762 25.1326Z" fill="#00DC82"/>
<path d="M53.7598 29.5364H58.7895V18.3756C58.7895 15.182 58.454 11.9883 58.454 11.9883L58.7505 12.6431C59.2183 13.6567 60.193 15.692 61.3378 17.6387L68.2113 29.5359H73.6098V4.96957H68.5468L68.5473 16.3403C68.5613 19.4638 68.882 22.5523 68.882 22.5523L68.6285 21.983C68.181 20.9948 67.1875 18.8742 66.032 16.8667L59.1245 4.96957H53.7598V29.5364ZM89.561 11.8483V21.5345C89.561 23.7806 88.1193 25.465 86.0738 25.465C84.1628 25.465 82.8213 23.9209 82.8213 21.78V11.8483H78.1608V22.8679C78.1608 26.904 80.642 29.817 84.4308 29.817C86.7445 29.817 88.622 28.764 89.5608 27.0796V29.5361H94.2553V11.8483H89.561ZM107.906 20.3412L113.573 11.8483H108.442L105.358 16.5159L102.273 11.8483H97.176L102.843 20.3063L96.7405 29.5361H101.737L105.391 24.0964L109.012 29.5361H113.975L107.906 20.3412ZM118.813 11.8483H115.56V15.9193H118.813V23.1136C118.813 27.2199 121.328 29.5361 125.217 29.5361H128V25.4301H125.854C124.346 25.4301 123.473 24.6228 123.473 22.9031V15.9191H128V11.848H123.473V6.61908H118.813L118.813 11.8483Z" fill="#00DC82"/>
</svg>
