<svg width="132" height="32" viewBox="0 0 132 32" fill="none" xmlns="http://www.w3.org/2000/svg">
<path d="M43.1298 24.7974C41.742 24.8324 40.3762 24.4465 39.2119 23.6905C38.1242 22.9731 37.3165 21.9033 36.9243 20.6607L39.3092 19.7847C39.6399 20.5478 40.1799 21.2017 40.8667 21.6706C41.5638 22.1382 42.3878 22.3803 43.227 22.3641C44.0337 22.4061 44.8297 22.1651 45.4778 21.6829C45.7597 21.4462 45.9825 21.147 46.1283 20.809C46.274 20.4709 46.3388 20.1035 46.3175 19.736C46.3209 19.3937 46.2415 19.0555 46.086 18.7505C45.9511 18.4774 45.7746 18.227 45.5628 18.008C45.295 17.7643 44.9913 17.5633 44.6624 17.4118C44.2566 17.2094 43.92 17.0553 43.6528 16.9495C43.3848 16.8445 42.9914 16.7026 42.4726 16.5238C41.8234 16.2968 41.3366 16.1184 41.0124 15.9887C40.573 15.8016 40.1463 15.5861 39.7349 15.3436C39.2923 15.1085 38.8898 14.8046 38.5425 14.4432C38.2419 14.0906 37.9996 13.6922 37.8247 13.2631C37.4886 12.445 37.4182 11.542 37.6234 10.6818C37.8286 9.82149 38.2991 9.0475 38.9682 8.46923C39.9417 7.60941 41.2639 7.1795 42.9349 7.1795C44.3298 7.1795 45.4775 7.48773 46.3781 8.10418C47.2521 8.68538 47.8937 9.55542 48.1909 10.562L45.8549 11.3405C45.6202 10.8133 45.224 10.3744 44.7234 10.0874C44.1178 9.75154 43.4321 9.58743 42.7401 9.61278C42.0616 9.57387 41.3894 9.76223 40.8299 10.1481C40.6014 10.3252 40.419 10.5549 40.2982 10.8176C40.1775 11.0802 40.1218 11.3682 40.1361 11.6569C40.1382 11.8783 40.1869 12.0968 40.2791 12.2981C40.3714 12.4994 40.505 12.679 40.6714 12.8251C40.9949 13.1433 41.3745 13.3991 41.7909 13.5795C42.1805 13.7416 42.7727 13.9606 43.5675 14.2364C44.0539 14.4151 44.4148 14.549 44.6501 14.6381C44.8855 14.7268 45.2302 14.8768 45.6844 15.0881C46.0484 15.2494 46.3986 15.4406 46.7307 15.66C47.0281 15.8741 47.3125 16.1058 47.5824 16.3538C47.8757 16.6082 48.1263 16.9079 48.3248 17.2416C48.5136 17.5879 48.6606 17.9554 48.7625 18.3365C48.8869 18.7841 48.9485 19.2469 48.9456 19.7115C48.9456 21.3017 48.402 22.5468 47.3148 23.4465C46.2279 24.3475 44.8328 24.7978 43.1298 24.7974ZM58.7276 24.5056L52.8872 7.47134H55.6128L59.482 19.3467C59.6959 19.9853 59.8746 20.6351 60.0173 21.2933C60.1596 20.635 60.3384 19.9851 60.5529 19.3467L64.3731 7.47134H67.0745L61.2581 24.5056H58.7276ZM72.2329 24.5056V7.47134H82.7941V9.85624H74.7639V14.5285H79.9467V16.9134H74.7639V22.1204H83.3292V24.5056H72.2329ZM89.7776 24.5056V7.47134H92.3086V22.0723H100.631V24.5058L89.7776 24.5056ZM110.17 9.90488V24.5056H107.638V9.90462H102.821V7.47134H114.988V9.90462L110.17 9.90488ZM120.219 24.5056V7.47134H130.781V9.85624H122.75V14.5285H127.933V16.9134H122.75V22.1204H131.316V24.5056H120.219Z" fill="#4A4A55"/>
<path d="M25.3804 4.23169C22.4105 -0.018937 16.545 -1.27871 12.3039 1.42337L4.85606 6.17038C3.84984 6.80336 2.98675 7.63932 2.32197 8.62483C1.6572 9.61034 1.20535 10.7237 0.995327 11.8938C0.640025 13.8647 0.952362 15.8978 1.88288 17.6712C1.24562 18.6384 0.810891 19.7247 0.604927 20.8645C0.392732 22.0581 0.421015 23.2821 0.688116 24.4646C0.955217 25.6471 1.45576 26.7644 2.16038 27.7509C5.13101 32.0021 10.9965 33.2613 15.2369 30.5592L22.6849 25.8125C23.6912 25.1796 24.5544 24.3436 25.2191 23.358C25.8839 22.3724 26.3356 21.259 26.5454 20.0888C26.9005 18.118 26.5883 16.085 25.6584 14.3114C26.2955 13.3442 26.73 12.2579 26.9358 11.1181C27.1482 9.92451 27.12 8.70053 26.853 7.51799C26.5859 6.33544 26.0851 5.21815 25.3804 4.23169Z" fill="#FF3E00"/>
<path d="M11.5761 28.151C10.4041 28.4557 9.16675 28.3934 8.03125 27.9724C6.89576 27.5515 5.91679 26.7922 5.22657 25.7971C4.8029 25.2038 4.50191 24.5319 4.34124 23.8208C4.18057 23.1097 4.16345 22.3736 4.29089 21.6558C4.3339 21.4199 4.39321 21.1881 4.46881 20.9603L4.6091 20.5327L4.99054 20.8128C5.8717 21.4605 6.85706 21.9529 7.90407 22.2687L8.18107 22.3526L8.15547 22.6289C8.12162 23.0219 8.2281 23.4143 8.45601 23.7363C8.66376 24.036 8.95847 24.2648 9.30036 24.3917C9.64224 24.5186 10.0148 24.5375 10.3678 24.4459C10.5297 24.4027 10.684 24.3348 10.8253 24.2447L18.2736 19.4985C18.4558 19.3837 18.6121 19.2322 18.7326 19.0536C18.8531 18.8751 18.935 18.6734 18.9733 18.4614C19.0116 18.2451 19.0064 18.0233 18.958 17.8089C18.9096 17.5946 18.8189 17.3921 18.6914 17.2132C18.4836 16.9132 18.1888 16.6843 17.8467 16.5573C17.5046 16.4304 17.1317 16.4115 16.7786 16.5033C16.617 16.5465 16.463 16.6142 16.3219 16.704L13.4795 18.516C13.0122 18.8132 12.5021 19.0371 11.9671 19.18C10.795 19.4848 9.55761 19.4225 8.42207 19.0016C7.28652 18.5807 6.3075 17.8214 5.61723 16.8264C5.19355 16.2331 4.89256 15.5612 4.73189 14.85C4.57122 14.1389 4.55411 13.4029 4.68155 12.6851C4.80782 11.9815 5.0795 11.312 5.47922 10.7195C5.87894 10.1269 6.39791 9.62424 7.00295 9.24364L14.4508 4.49664C14.9183 4.19904 15.4288 3.97483 15.9642 3.8318C17.1363 3.52705 18.3737 3.58933 19.5092 4.01024C20.6448 4.43115 21.6238 5.19041 22.3141 6.18547C22.7377 6.77877 23.0387 7.45067 23.1994 8.1618C23.3601 8.87292 23.3772 9.60896 23.2497 10.3268C23.2062 10.5623 23.1468 10.795 23.0718 11.0223L22.9315 11.4501L22.5501 11.1703C21.6689 10.5224 20.6834 10.0298 19.6363 9.71392L19.3596 9.62995L19.3852 9.35347C19.4187 8.9605 19.3123 8.56833 19.0846 8.24627C18.8769 7.94655 18.5822 7.7178 18.2403 7.5909C17.8984 7.464 17.5258 7.44506 17.1728 7.53664C17.0109 7.57984 16.8567 7.64761 16.7153 7.7376L9.26702 12.4843C9.08477 12.599 8.92844 12.7505 8.80802 12.929C8.6876 13.1075 8.60572 13.3092 8.56763 13.5211C8.52908 13.7375 8.53411 13.9594 8.58242 14.1738C8.63073 14.3882 8.72135 14.5907 8.84897 14.7697C9.05674 15.0696 9.35156 15.2985 9.69361 15.4254C10.0356 15.5524 10.4084 15.5713 10.7615 15.4795C10.9234 15.4363 11.0777 15.3686 11.219 15.2786L14.0609 13.4674C14.5282 13.17 15.0382 12.9459 15.5733 12.8028C16.7454 12.4981 17.9828 12.5603 19.1183 12.9812C20.2539 13.4022 21.2329 14.1614 21.9231 15.1565C22.3468 15.7498 22.6478 16.4217 22.8085 17.1328C22.9692 17.8439 22.9863 18.58 22.8588 19.2978C22.7324 20.0014 22.4607 20.6709 22.0609 21.2636C21.6612 21.8562 21.1422 22.359 20.5372 22.7397L13.0896 27.4859C12.622 27.7836 12.1116 28.0079 11.5761 28.151Z" fill="white"/>
</svg>
