<svg width="51" height="60" viewBox="0 0 51 60" fill="none" xmlns="http://www.w3.org/2000/svg">
<path d="M1.87778 40C1.59763 39.9993 1.3235 40.0713 1.08994 40.2069C0.85172 40.345 0.633663 40.5834 0.633663 40.8885C0.633663 40.9291 0.606779 41.0194 0.696392 41.1766L0.673242 41.1268L5.46003 54.7432C5.54591 54.9985 5.75127 55.1936 5.98277 55.3063C6.21427 55.4189 6.46668 55.4601 6.71311 55.4601C7.23585 55.4601 7.81086 55.2414 7.98636 54.7478V54.7465L12.7687 41.079V41.0292C12.7687 41.0986 12.7918 41.0587 12.7918 40.9094C12.7918 40.5984 12.5655 40.3699 12.3236 40.2265C12.0815 40.0808 11.7951 40.0019 11.5014 40C11.1355 40 10.7158 40.1945 10.5754 40.565L10.5724 40.569L6.71162 51.8656L2.83589 40.5893C2.77838 40.3876 2.62381 40.2193 2.44383 40.1251C2.26386 40.0308 2.06746 40 1.87778 40ZM40.0041 40.7019C39.2424 40.7019 38.6002 41.2139 38.6002 41.8542C38.6002 42.4945 39.2319 43.0242 40.0041 43.0242C40.7613 43.0242 41.3632 42.4847 41.3632 41.8542C41.3632 41.2237 40.7509 40.7019 40.0041 40.7019ZM28.7809 45.0611C26.1762 45.0611 24.0307 46.8891 24.0307 49.0857V51.3366C24.0307 52.5669 24.5893 53.6216 25.5392 54.349C26.4876 55.0771 27.8123 55.4798 29.3305 55.4798C30.4522 55.4798 31.367 55.2591 32.0204 54.9606C32.3485 54.8104 32.6096 54.6437 32.8037 54.4603C32.9979 54.277 33.1398 54.0773 33.1398 53.8272C33.1398 53.5981 33.0397 53.399 32.8762 53.2203C32.7126 53.0415 32.4565 52.8772 32.1249 52.8772C31.886 52.8772 31.7023 52.9656 31.5432 53.0514C31.3841 53.1365 31.2348 53.2314 31.0548 53.3224C30.6949 53.5038 30.2184 53.6806 29.3761 53.6806C28.4381 53.6806 27.657 53.4462 27.1178 53.052C26.5802 52.6592 26.2665 52.1125 26.2665 51.3962V50.9798H31.072C31.585 50.9798 32.1548 50.9798 32.6477 50.7048C33.1405 50.4285 33.4393 49.8799 33.4393 49.0464C33.4393 46.7352 31.2408 45.0611 28.7809 45.0611ZM46.8423 45.0611C45.4578 45.0611 44.4392 45.4539 43.785 46.0445C43.1308 46.635 42.8485 47.4037 42.8485 48.1213C42.8485 49.0366 43.2705 49.6926 43.8739 50.1123C44.478 50.5333 45.2292 50.7448 45.9439 50.9333C46.6586 51.1219 47.3426 51.2901 47.8019 51.5383C48.2611 51.7871 48.5076 52.0549 48.5076 52.6212C48.5076 52.9257 48.403 53.1679 48.1215 53.3656C47.8392 53.564 47.3374 53.7198 46.5212 53.7198C45.5556 53.7198 45.0157 53.511 44.6221 53.2982C44.4257 53.1915 44.2674 53.0808 44.1046 52.982C43.9418 52.8831 43.7566 52.7764 43.4975 52.7764C43.1861 52.7764 42.9561 52.9446 42.8164 53.1188C42.6751 53.2897 42.5981 53.495 42.5961 53.7061C42.5961 53.9713 42.744 54.2043 42.9523 54.4067C43.1614 54.609 43.443 54.789 43.7895 54.9461C44.4817 55.2604 45.4354 55.4798 46.5675 55.4798C47.7974 55.4798 48.8085 55.2166 49.5247 54.7059C50.2401 54.1952 50.6299 53.4363 50.6299 52.5616C50.6299 51.573 50.2199 50.8626 49.6165 50.3925C49.0124 49.9231 48.2499 49.6808 47.5248 49.4857C46.7997 49.2913 46.1015 49.1394 45.6347 48.9259C45.168 48.7125 44.9477 48.5154 44.9477 48.0617C44.9477 47.8162 45.0597 47.5071 45.3442 47.2629C45.6288 47.02 46.0933 46.8223 46.8654 46.8223C47.4822 46.8223 47.9408 46.9467 48.3082 47.0776C48.4919 47.1437 48.6517 47.2125 48.8025 47.2701C48.9541 47.3271 49.0938 47.3834 49.2939 47.3834C49.6561 47.3834 49.9048 47.1739 50.0526 46.9794C50.2005 46.785 50.2856 46.5931 50.2856 46.3731C50.2856 46.0981 50.0907 45.903 49.8749 45.7577C49.6591 45.6123 49.3873 45.4945 49.0736 45.3937C48.4463 45.192 47.6458 45.0611 46.8423 45.0611ZM14.0912 45.1828C13.4856 45.1828 12.9621 45.5161 12.9621 46.0117V51.3759C12.9621 53.5522 15.0725 55.4798 17.6891 55.4798C20.2625 55.4798 22.4162 53.5745 22.4162 51.3759V45.9921C22.4162 45.7446 22.2609 45.5292 22.0562 45.3924C21.8516 45.2562 21.5918 45.1828 21.3095 45.1828C21.0272 45.1828 20.7658 45.2549 20.5567 45.3891C20.3476 45.5226 20.1804 45.7361 20.1804 45.9921V51.3759C20.1804 52.5165 19.0468 53.6203 17.6891 53.6203C16.3098 53.6203 15.1987 52.4968 15.1987 51.3759V46.0117C15.1987 45.7544 15.0381 45.5567 14.8402 45.4159C14.6423 45.2752 14.3809 45.1828 14.0912 45.1828ZM40.0048 45.1828C39.7211 45.1828 39.4597 45.247 39.2506 45.3851C39.0415 45.5226 38.8996 45.7505 38.8996 45.9921V55.8759C38.8996 56.6177 38.8399 57.2397 38.6539 57.6168C38.4687 57.9933 38.2492 58.1602 37.6234 58.1602C37.07 58.1602 36.6078 58.5838 36.6078 59.0912C36.6078 59.3014 36.6855 59.5332 36.8819 59.7132C37.0783 59.8933 37.3837 60 37.7369 60C38.9273 60 39.8383 59.5371 40.3805 58.7855C40.9241 58.0332 41.1347 57.0275 41.1347 55.8759V45.9921C41.1347 45.7348 40.9674 45.5109 40.7539 45.3786C40.5334 45.2467 40.2716 45.1783 40.0048 45.1828ZM28.7577 46.802C30.2446 46.802 31.249 47.8934 31.249 49.0051C31.249 49.1263 31.234 49.2055 31.2191 49.2415C31.2057 49.2775 31.2072 49.2729 31.1862 49.2854C31.1452 49.3089 30.9152 49.3607 30.4761 49.3607H26.2665V48.9246C26.2665 47.7612 27.3755 46.802 28.7577 46.802ZM35.861 52.9368C35.0485 52.9368 34.4332 53.526 34.4332 54.2083C34.4332 54.863 35.0396 55.4601 35.861 55.4601C36.6392 55.4601 37.2649 54.8813 37.2649 54.2083C37.2649 53.5097 36.6287 52.9368 35.861 52.9368Z" fill="#35495E"/>
<path d="M13.8511 0L22.9305 0.00319626L28.8653 11.4069L34.7795 0.00479438L43.8511 0.00213084L28.9109 30L13.8511 0Z" fill="#35495E"/>
<path d="M8.47168 0.0472441L14.4315 0L23.502 18.223L32.5016 0.000970766L38.4717 0.00841333L23.5009 30L8.47168 0.0472441Z" fill="#41B883"/>
</svg>
